<svg width="22" height="22" viewBox="0 0 22 22" fill="none" xmlns="http://www.w3.org/2000/svg">
<path fill-rule="evenodd" clip-rule="evenodd" d="M15.135 19.7084H7.48281C4.67198 19.7084 2.51561 18.6932 3.12812 14.607L3.84131 9.06922C4.21889 7.03032 5.51942 6.25 6.66054 6.25H15.9908C17.1487 6.25 18.3737 7.08905 18.81 9.06922L19.5232 14.607C20.0435 18.2317 17.9458 19.7084 15.135 19.7084Z" stroke="#F69B88" stroke-width="1.60345" stroke-linecap="round" stroke-linejoin="round"/>
<path d="M15.2617 6.04924C15.2617 3.86201 13.4886 2.0889 11.3013 2.0889V2.0889C10.2481 2.08444 9.23644 2.49972 8.4901 3.24291C7.74376 3.9861 7.32421 4.99598 7.32422 6.04924H7.32422" stroke="#F69B88" stroke-width="1.60345" stroke-linecap="round" stroke-linejoin="round"/>
<path d="M14.0206 10.1769H13.9786" stroke="#F69B88" stroke-width="1.60345" stroke-linecap="round" stroke-linejoin="round"/>
<path d="M8.67488 10.1769H8.63293" stroke="#F69B88" stroke-width="1.60345" stroke-linecap="round" stroke-linejoin="round"/>
</svg>
