<svg width="25" height="25" viewBox="0 0 25 25" fill="none" xmlns="http://www.w3.org/2000/svg">
<g clip-path="url(#clip0_1402_3883)">
<path d="M24.4382 12.5152C23.568 10.8227 21.8226 9.76057 19.9194 9.7655C19.3815 9.76594 18.8471 9.85242 18.3365 10.0216L16.2562 5.86099H19.5289C19.7446 5.86099 19.9194 6.03581 19.9194 6.25144C19.9194 6.46706 19.7446 6.64189 19.5289 6.64189H17.9671C17.7515 6.64189 17.5767 6.81671 17.5767 7.03234C17.5767 7.24797 17.7515 7.42279 17.9671 7.42279H19.5289C20.1759 7.42279 20.7003 6.89837 20.7003 6.25144C20.7003 5.60451 20.1759 5.08008 19.5289 5.08008H15.6244C15.4088 5.07891 15.2331 5.25276 15.2318 5.46839C15.2315 5.52969 15.2456 5.59021 15.273 5.64507L15.7736 6.64189H8.83757L8.44711 5.86099H10.5485C10.7641 5.86099 10.939 5.68616 10.939 5.47054C10.939 5.25491 10.7641 5.08008 10.5485 5.08008H6.64401C6.42838 5.08008 6.25356 5.25491 6.25356 5.47054C6.25356 5.68616 6.42838 5.86099 6.64401 5.86099H7.57407L8.15974 7.03234L6.66509 10.0216C4.00246 9.14468 1.13309 10.5922 0.256133 13.2549C-0.620821 15.9175 0.826728 18.7869 3.48936 19.6638C6.15199 20.5408 9.02137 19.0932 9.89832 16.4306C10.0263 16.0421 10.1068 15.6396 10.1382 15.2318H12.5008C12.5324 15.2316 12.5639 15.2276 12.5945 15.2197L12.6027 15.2178C12.6117 15.2154 12.6195 15.2103 12.6285 15.2076C12.6443 15.2029 12.6598 15.1974 12.6749 15.1908C12.6773 15.1908 12.6784 15.1877 12.6804 15.1865C12.6823 15.1853 12.6913 15.1811 12.6964 15.1779C12.7077 15.1706 12.7187 15.1626 12.7292 15.1541C12.746 15.1423 12.7619 15.1292 12.7768 15.1151L12.7921 15.0994C12.7979 15.0928 12.8014 15.0854 12.8069 15.0784C12.8124 15.0713 12.8252 15.0585 12.8327 15.0467C12.8358 15.0413 12.8373 15.035 12.8401 15.0296C12.8428 15.0241 12.8471 15.021 12.8498 15.0159L16.4053 7.90539L17.6157 10.3262C15.1272 11.6057 14.1471 14.6602 15.4266 17.1487C16.7061 19.6372 19.7607 20.6173 22.2491 19.3377C24.7376 18.0582 25.7177 15.0037 24.4382 12.5152ZM5.08221 19.1363C2.71017 19.1396 0.784559 17.2194 0.781241 14.8474C0.777922 12.4753 2.69816 10.5497 5.0702 10.5464C5.49072 10.5458 5.90904 10.607 6.31179 10.728L4.3423 14.6668C4.24591 14.8597 4.32415 15.0942 4.51703 15.1906C4.5713 15.2177 4.63109 15.2318 4.69175 15.2318H9.35725C9.15368 17.4417 7.30143 19.1333 5.08221 19.1363ZM5.3235 14.4509L7.03798 11.0224C8.34677 11.6931 9.22172 12.9865 9.35725 14.4509H5.3235ZM10.1382 14.4509C10.001 12.6904 8.9586 11.1276 7.38587 10.3246L8.59627 7.90383L11.869 14.4509H10.1382ZM12.5008 13.9683L9.22802 7.42279H15.7735L12.5008 13.9683ZM21.1609 18.9548C20.7582 19.0758 20.3399 19.1369 19.9193 19.1363C17.549 19.1383 15.6259 17.2183 15.624 14.848C15.6227 13.2344 16.5266 11.7564 17.9636 11.0224L19.9603 15.0159C20.0567 15.2089 20.2913 15.2872 20.4843 15.1908C20.6773 15.0944 20.7556 14.8598 20.6593 14.6668L18.6898 10.728C20.9616 10.0456 23.3564 11.334 24.0388 13.6058C24.7212 15.8776 23.4327 18.2724 21.1609 18.9548Z" fill="#E48C7A"/>
<path d="M5.08168 15.6223H4.69123C4.47561 15.6223 4.30078 15.7971 4.30078 16.0128C4.30078 16.2284 4.47561 16.4032 4.69123 16.4032H5.08168C5.29731 16.4032 5.47213 16.2284 5.47213 16.0128C5.47213 15.7971 5.29731 15.6223 5.08168 15.6223Z" fill="#E48C7A"/>
<path d="M6.64418 15.6223H6.25373C6.03811 15.6223 5.86328 15.7971 5.86328 16.0128C5.86328 16.2284 6.03811 16.4032 6.25373 16.4032H6.64418C6.85981 16.4032 7.03463 16.2284 7.03463 16.0128C7.03463 15.7971 6.85981 15.6223 6.64418 15.6223Z" fill="#E48C7A"/>
<path d="M8.20668 15.6223H7.81623C7.60061 15.6223 7.42578 15.7971 7.42578 16.0128C7.42578 16.2284 7.60061 16.4032 7.81623 16.4032H8.20668C8.42231 16.4032 8.59713 16.2284 8.59713 16.0128C8.59713 15.7971 8.42231 15.6223 8.20668 15.6223Z" fill="#E48C7A"/>
</g>
<defs>
<clipPath id="clip0_1402_3883">
<rect width="25" height="25" fill="white"/>
</clipPath>
</defs>
</svg>
