<svg width="46" height="33" viewBox="0 0 46 33" fill="none" xmlns="http://www.w3.org/2000/svg">
<path d="M6.09869 14.7488L6.09872 14.7488L16.9499 25.5991L40.4942 2.05566L40.4946 2.05529C40.9833 1.56726 41.6458 1.29325 42.3364 1.29347C43.0271 1.29369 43.6894 1.56814 44.1778 2.05648C44.6661 2.54482 44.9406 3.2071 44.9409 3.89775C44.9412 4.5884 44.6673 5.2509 44.1793 5.73964L44.1788 5.74009L18.7928 31.1252L6.09869 14.7488ZM6.09869 14.7488C5.85675 14.5069 5.56953 14.315 5.25344 14.1841C4.93734 14.0532 4.59855 13.9859 4.25643 13.9859C3.91429 13.9859 3.57552 14.0533 3.25945 14.1843C2.94337 14.3153 2.65619 14.5072 2.41429 14.7491C2.17239 14.9911 1.98051 15.2783 1.84961 15.5944C1.71871 15.9105 1.65135 16.2493 1.65138 16.5914C1.65141 16.9335 1.71883 17.2723 1.84978 17.5884C1.98073 17.9044 2.17265 18.1916 2.41458 18.4335C2.41459 18.4335 2.4146 18.4335 2.4146 18.4335L15.1071 31.125C15.349 31.3676 15.6364 31.5599 15.9528 31.6909C16.269 31.8219 16.6078 31.8891 16.95 31.8888M6.09869 14.7488L16.95 31.8888M16.95 31.8888C16.9497 31.8888 16.9493 31.8888 16.949 31.8888L16.9499 31.0968L16.95 31.8888ZM16.95 31.8888C17.2922 31.889 17.631 31.8218 17.9471 31.6909C18.2632 31.56 18.5504 31.3679 18.7922 31.1258L16.95 31.8888Z" fill="#FF1B03" stroke="white" stroke-width="1.58396"/>
</svg>
