<svg width="30" height="24" viewBox="0 0 30 24" fill="none" xmlns="http://www.w3.org/2000/svg">
<path fill-rule="evenodd" clip-rule="evenodd" d="M16.1792 21.0675H7.99934C4.99465 21.0675 2.68957 19.9822 3.34432 15.6142L4.1067 9.69456C4.51032 7.51504 5.90054 6.68091 7.12035 6.68091H17.0941C18.3319 6.68091 19.6414 7.57783 20.1078 9.69456L20.8701 15.6142C21.4262 19.4889 19.1839 21.0675 16.1792 21.0675Z" stroke="#F69B88" stroke-width="1.60345" stroke-linecap="round" stroke-linejoin="round"/>
<path d="M16.3149 6.46641C16.3149 4.12833 14.4196 2.23295 12.0815 2.23295V2.23295C10.9556 2.22818 9.87418 2.67209 9.07637 3.46654C8.27855 4.26099 7.83007 5.34051 7.83008 6.46641H7.83008" stroke="#F69B88" stroke-width="1.60345" stroke-linecap="round" stroke-linejoin="round"/>
<path d="M14.9865 10.8791H14.9417" stroke="#F69B88" stroke-width="1.60345" stroke-linecap="round" stroke-linejoin="round"/>
<path d="M9.27362 10.8791H9.22877" stroke="#F69B88" stroke-width="1.60345" stroke-linecap="round" stroke-linejoin="round"/>
<path d="M19.7542 19.6166C19.907 19.6167 20.0583 19.5867 20.1995 19.5282L19.962 18.9549L20.1995 19.5282C20.3408 19.4696 20.4693 19.3837 20.5774 19.2754L28.179 11.6741L28.1793 11.6737C28.3973 11.4555 28.5196 11.1596 28.5195 10.8511C28.5194 10.5427 28.3968 10.2469 28.1787 10.0288C27.9606 9.81073 27.6648 9.68816 27.3563 9.68806C27.0479 9.68796 26.752 9.81033 26.5338 10.0283L26.5335 10.0286L19.7542 16.8076L16.7758 13.8296L16.7758 13.8295C16.6678 13.7215 16.5395 13.6358 16.3983 13.5774L16.3983 13.5774C16.2571 13.5189 16.1058 13.4888 15.9531 13.4888C15.8003 13.4888 15.649 13.519 15.5078 13.5774L15.5078 13.5774C15.3666 13.6359 15.2384 13.7216 15.1303 13.8297C15.0223 13.9377 14.9366 14.066 14.8782 14.2072C14.8197 14.3484 14.7896 14.4997 14.7896 14.6525C14.7896 14.8053 14.8197 14.9566 14.8782 15.0977L15.4515 14.8602L14.8782 15.0977C14.9367 15.2389 15.0224 15.3671 15.1305 15.4751C15.1305 15.4752 15.1305 15.4752 15.1305 15.4752L18.9309 19.2753C18.931 19.2754 18.931 19.2754 18.9311 19.2755C19.0392 19.3838 19.1676 19.4697 19.3089 19.5282C19.4501 19.5867 19.6014 19.6167 19.7542 19.6166ZM19.7542 19.6166C19.754 19.6166 19.7537 19.6166 19.7535 19.6166L19.7542 18.9961L19.755 19.6166C19.7548 19.6166 19.7545 19.6166 19.7542 19.6166Z" fill="#F69B88" stroke="#F4DA7D" stroke-width="1.24107"/>
</svg>
