<svg width="24" height="26" viewBox="0 0 24 26" fill="none" xmlns="http://www.w3.org/2000/svg">
<path d="M11.7259 12.8501L11.6035 24.7001" stroke="#F69B88" stroke-width="1.7" stroke-linecap="round" stroke-linejoin="round"/>
<path d="M22.2079 18.3055V7.39445C22.2079 7.23116 22.1646 7.0708 22.0823 6.92977C22 6.78873 21.8817 6.67207 21.7396 6.59172L12.0577 1.11935C11.9193 1.04111 11.763 1 11.604 1C11.445 1 11.2887 1.04111 11.1503 1.11935L1.46837 6.59172C1.32621 6.67207 1.20794 6.78873 1.12565 6.92977C1.04336 7.0708 1 7.23116 1 7.39445V18.3055C1 18.4688 1.04336 18.6292 1.12565 18.7702C1.20794 18.9113 1.32621 19.0279 1.46837 19.1083L11.1503 24.5806C11.2887 24.6589 11.445 24.7 11.604 24.7C11.763 24.7 11.9193 24.6589 12.0577 24.5806L21.7396 19.1083C21.8817 19.0279 22 18.9113 22.0823 18.7702C22.1646 18.6292 22.2079 18.4688 22.2079 18.3055V18.3055Z" stroke="#F69B88" stroke-width="1.7" stroke-linecap="round" stroke-linejoin="round"/>
<path d="M22.0815 6.92876L11.7262 12.85L1.12695 6.92749" stroke="#F69B88" stroke-width="1.7" stroke-linecap="round" stroke-linejoin="round"/>
<path d="M17.268 15.2141V9.68164L6.57422 3.7063" stroke="#F69B88" stroke-width="1.7" stroke-linecap="round" stroke-linejoin="round"/>
</svg>
