<svg width="19" height="25" viewBox="0 0 19 25" fill="none" xmlns="http://www.w3.org/2000/svg">
<path d="M18.4583 3.01616C18.2329 2.88506 17.9544 2.88506 17.7291 3.01616C16.8566 3.5019 15.8735 3.75449 14.875 3.74951C13.4154 3.78179 12.0042 3.22632 10.9583 2.20786C9.75088 1.02598 8.11836 0.380176 6.42915 0.416211C5.06875 0.404443 3.73867 0.818164 2.625 1.59956V1.24951C2.625 0.55918 2.06538 -0.000488281 1.375 -0.000488281C0.684619 -0.000488281 0.125 0.559131 0.125 1.24951V23.7495C0.125 24.4398 0.684619 24.9995 1.375 24.9995C2.06533 24.9995 2.625 24.4399 2.625 23.7495V12.9162C2.76309 12.9032 2.89463 12.8512 3.00415 12.7662C3.99546 12.0361 5.19814 11.6499 6.42915 11.6662C7.89136 11.6326 9.30566 12.1881 10.3541 13.2078C11.5593 14.388 13.1886 15.0337 14.875 14.9995C16.1674 15.0145 17.4351 14.6447 18.5167 13.937C18.7481 13.7766 18.8829 13.5101 18.875 13.2286V3.74951C18.8792 3.44766 18.7197 3.16709 18.4583 3.01616ZM1.7916 23.7495C1.7916 23.9796 1.60508 24.1662 1.37495 24.1662C1.14482 24.1662 0.958301 23.9796 0.958301 23.7495V1.24951C0.958301 1.01938 1.14482 0.832861 1.37495 0.832861C1.60508 0.832861 1.7916 1.01938 1.7916 1.24951V23.7495ZM18.0416 13.2454C17.0983 13.8542 15.9977 14.1743 14.875 14.1662C13.4154 14.1985 12.0042 13.643 10.9583 12.6246C9.75088 11.4427 8.11836 10.7969 6.42915 10.8329C5.06963 10.8184 3.73955 11.2292 2.625 12.0079V2.67451C3.66562 1.73291 5.02603 1.22334 6.42915 1.24951C7.89136 1.21592 9.30566 1.77144 10.3541 2.79116C11.5593 3.97134 13.1886 4.61704 14.875 4.58281C15.9784 4.59053 17.0665 4.32422 18.0416 3.80781V13.2454H18.0416Z" fill="#E48C7A"/>
</svg>
