<svg width="22" height="23" viewBox="0 0 22 23" fill="none" xmlns="http://www.w3.org/2000/svg">
<path fill-rule="evenodd" clip-rule="evenodd" d="M15.6531 21.9826H6.72957C3.45173 21.9826 0.937095 20.7986 1.65137 16.0335L2.48306 9.57571C2.92336 7.19805 4.43998 6.28809 5.77068 6.28809H16.6511C18.0014 6.28809 19.43 7.26654 19.9388 9.57571L20.7704 16.0335C21.3771 20.2605 18.9309 21.9826 15.6531 21.9826Z" stroke="#8F92A1" stroke-width="1.60345" stroke-linecap="round" stroke-linejoin="round"/>
<path d="M15.7992 6.05342C15.7992 3.50279 13.7315 1.4351 11.1809 1.4351V1.4351C9.95262 1.4299 8.7729 1.91417 7.90256 2.78084C7.03221 3.64751 6.54296 4.82517 6.54297 6.05342H6.54297" stroke="#8F92A1" stroke-width="1.60345" stroke-linecap="round" stroke-linejoin="round"/>
<path d="M14.3516 10.8676H14.3027" stroke="#8F92A1" stroke-width="1.60345" stroke-linecap="round" stroke-linejoin="round"/>
<path d="M8.11916 10.8676H8.07024" stroke="#8F92A1" stroke-width="1.60345" stroke-linecap="round" stroke-linejoin="round"/>
</svg>
