<svg width="75" height="59" viewBox="0 0 75 59" fill="none" xmlns="http://www.w3.org/2000/svg">
<path fill-rule="evenodd" clip-rule="evenodd" d="M39.6062 52.1055H19.5841C12.2295 52.1055 6.58726 49.4491 8.18991 38.7574L10.056 24.2677C11.0439 18.9328 14.4468 16.8911 17.4326 16.8911H41.8456C44.8752 16.8911 48.0805 19.0865 49.2221 24.2677L51.0882 38.7574C52.4494 48.2416 46.9609 52.1055 39.6062 52.1055Z" stroke="#FF1B03" stroke-width="1.60345" stroke-linecap="round" stroke-linejoin="round"/>
<path d="M39.9366 16.3639C39.9366 10.6409 35.2972 6.00156 29.5742 6.00156V6.00156C26.8184 5.98988 24.1714 7.07647 22.2185 9.02105C20.2657 10.9656 19.1679 13.608 19.168 16.3639H19.168" stroke="#FF1B03" stroke-width="1.60345" stroke-linecap="round" stroke-linejoin="round"/>
<path d="M36.6858 27.1656H36.576" stroke="#FF1B03" stroke-width="1.60345" stroke-linecap="round" stroke-linejoin="round"/>
<path d="M22.7014 27.1656H22.5916" stroke="#FF1B03" stroke-width="1.60345" stroke-linecap="round" stroke-linejoin="round"/>
<path d="M51.6886 50.8629C51.9567 50.8631 52.2221 50.8104 52.4698 50.7078C52.7177 50.6052 52.9429 50.4545 53.1325 50.2646L73.023 30.3747L73.0234 30.3744C73.4057 29.9914 73.6204 29.4724 73.6202 28.9312C73.6199 28.3901 73.4049 27.8712 73.0222 27.4885C72.6395 27.1059 72.1206 26.8909 71.5795 26.8907C71.0383 26.8905 70.5193 27.1052 70.1363 27.4876L70.1361 27.4879L51.6885 45.9348L43.1863 37.4333L43.1863 37.4333C42.9967 37.2437 42.7717 37.0934 42.524 36.9908C42.2764 36.8883 42.0109 36.8355 41.7428 36.8355C41.4748 36.8356 41.2093 36.8884 40.9617 36.991C40.714 37.0936 40.489 37.244 40.2995 37.4335C40.11 37.6231 39.9596 37.8481 39.857 38.0958C39.7545 38.3435 39.7017 38.6089 39.7017 38.877C39.7018 39.1451 39.7546 39.4105 39.8572 39.6582C39.9598 39.9058 40.1102 40.1308 40.2997 40.3203C40.2997 40.3203 40.2997 40.3204 40.2997 40.3204L50.2446 50.2645C50.2448 50.2646 50.2449 50.2647 50.245 50.2649C50.4345 50.4547 50.6595 50.6052 50.9073 50.7079C51.155 50.8105 51.4205 50.8631 51.6886 50.8629ZM51.6886 50.8629C51.6883 50.8629 51.6881 50.8629 51.6878 50.8629L51.6885 50.2423L51.6894 50.8629C51.6891 50.8629 51.6889 50.8629 51.6886 50.8629Z" fill="#FF1B03" stroke="white" stroke-width="1.24107"/>
</svg>
