<svg width="28" height="29" viewBox="0 0 28 29" fill="none" xmlns="http://www.w3.org/2000/svg">
<path fill-rule="evenodd" clip-rule="evenodd" d="M19.7044 27.5626H8.22617C4.00992 27.5626 0.775365 26.0398 1.69413 19.9105L2.76392 11.6038C3.33029 8.54548 5.28109 7.375 6.99276 7.375H20.9882C22.725 7.375 24.5626 8.63358 25.217 11.6038L26.2868 19.9105C27.0671 25.3475 23.9207 27.5626 19.7044 27.5626Z" stroke="#FF1B03" stroke-width="1.60345" stroke-linecap="round" stroke-linejoin="round"/>
<path d="M19.8925 7.07239C19.8925 3.79154 17.2329 1.13189 13.952 1.13189V1.13189C12.3721 1.12519 10.8547 1.74811 9.73515 2.8629C8.61564 3.97768 7.98631 5.4925 7.98633 7.07239H7.98633" stroke="#FF1B03" stroke-width="1.60345" stroke-linecap="round" stroke-linejoin="round"/>
<path d="M18.0299 13.2645H17.967" stroke="#FF1B03" stroke-width="1.60345" stroke-linecap="round" stroke-linejoin="round"/>
<path d="M10.0123 13.2645H9.94939" stroke="#FF1B03" stroke-width="1.60345" stroke-linecap="round" stroke-linejoin="round"/>
</svg>
