<svg width="21" height="27" viewBox="0 0 21 27" fill="none" xmlns="http://www.w3.org/2000/svg">
<path d="M20.1514 3.25426C19.9082 3.11281 19.6078 3.11281 19.3647 3.25426C18.4233 3.77835 17.3627 4.05087 16.2852 4.0455C14.7105 4.08032 13.1879 3.48101 12.0595 2.38217C10.7567 1.10699 8.99536 0.410221 7.17283 0.449101C5.70505 0.436404 4.26999 0.88278 3.06842 1.72585V1.34817C3.06842 0.603354 2.46463 -0.000488281 1.71976 -0.000488281C0.974883 -0.000488281 0.371094 0.603301 0.371094 1.34817V25.6241C0.371094 26.3689 0.974883 26.9727 1.71976 26.9727C2.46458 26.9727 3.06842 26.369 3.06842 25.6241V13.9357C3.2174 13.9217 3.35933 13.8656 3.47749 13.7738C4.54705 12.9862 5.84466 12.5695 7.17283 12.587C8.75045 12.5508 10.2764 13.1501 11.4076 14.2503C12.7079 15.5237 14.4658 16.2203 16.2853 16.1834C17.6797 16.1996 19.0475 15.8006 20.2144 15.037C20.4641 14.864 20.6096 14.5765 20.601 14.2728V4.0455C20.6055 3.71982 20.4335 3.4171 20.1514 3.25426ZM2.16924 25.6241C2.16924 25.8724 1.96799 26.0736 1.7197 26.0736C1.47141 26.0736 1.27017 25.8724 1.27017 25.6241V1.34817C1.27017 1.09988 1.47141 0.898637 1.7197 0.898637C1.96799 0.898637 2.16924 1.09988 2.16924 1.34817V25.6241ZM19.7018 14.2908C18.6841 14.9478 17.4966 15.2931 16.2852 15.2844C14.7105 15.3192 13.1879 14.7199 12.0595 13.621C10.7567 12.3459 8.99536 11.6491 7.17283 11.688C5.706 11.6723 4.27094 12.1156 3.06842 12.9557V2.88565C4.19118 1.86973 5.65895 1.31994 7.17283 1.34817C8.75045 1.31193 10.2764 1.91129 11.4076 3.01151C12.7079 4.28483 14.4658 4.9815 16.2853 4.94457C17.4758 4.95289 18.6498 4.66557 19.7019 4.1084V14.2908H19.7018Z" fill="#8F92A1"/>
</svg>
